<?xml version="1.0" standalone="no"?>
<!DOCTYPE svg PUBLIC "-//W3C//DTD SVG 20010904//EN"
 "http://www.w3.org/TR/2001/REC-SVG-20010904/DTD/svg10.dtd">
<svg version="1.0" xmlns="http://www.w3.org/2000/svg"
 width="640.000000pt" height="781.000000pt" viewBox="0 0 640.000000 781.000000"
 preserveAspectRatio="xMidYMid meet">

<g transform="translate(0.000000,781.000000) scale(0.100000,-0.100000)"
fill="#000000" stroke="none">
<path d="M4047 7413 c-33 -35 -36 -43 -38 -103 -3 -69 15 -129 53 -182 16 -24
19 -38 14 -71 -4 -23 -10 -62 -13 -87 -7 -54 -15 -66 -51 -73 -26 -5 -29 -12
-61 -139 -19 -73 -38 -137 -43 -143 -4 -5 -8 -16 -8 -25 0 -8 -9 -26 -20 -40
-11 -14 -20 -40 -20 -58 0 -31 -38 -164 -66 -227 -7 -16 -19 -46 -27 -65 -9
-19 -19 -48 -23 -65 -4 -16 -30 -61 -57 -100 -58 -80 -77 -126 -84 -207 -5
-45 -10 -59 -24 -63 -11 -4 -26 -19 -34 -34 -20 -40 -39 -44 -66 -14 -13 13
-32 29 -41 34 -34 18 -124 30 -183 23 -53 -6 -64 -11 -100 -48 -84 -86 -99
-115 -103 -191 -3 -47 -9 -73 -18 -78 -18 -10 -11 -63 15 -122 37 -82 34 -137
-8 -153 -10 -4 -51 -36 -90 -72 -39 -36 -94 -85 -123 -109 -73 -60 -187 -171
-199 -193 -5 -10 -19 -18 -30 -18 -12 0 -34 -10 -49 -22 -15 -13 -37 -30 -49
-38 -11 -8 -21 -20 -21 -26 0 -7 -6 -14 -12 -17 -7 -2 -21 -31 -32 -63 -10
-33 -28 -84 -39 -114 -18 -49 -20 -78 -19 -251 1 -195 1 -196 -24 -230 -14
-19 -38 -61 -54 -94 -65 -138 -62 -122 -63 -370 0 -145 5 -256 13 -302 7 -39
9 -79 5 -90 -12 -27 -15 -132 -4 -138 5 -4 9 -15 9 -25 0 -10 6 -25 13 -32 8
-7 19 -23 25 -35 8 -14 24 -23 44 -25 29 -3 33 -7 39 -40 3 -20 11 -43 17 -51
7 -8 19 -56 28 -108 8 -52 21 -132 29 -179 13 -75 12 -92 -1 -135 -70 -230
-81 -290 -97 -525 -1 -14 -12 -38 -23 -55 -12 -16 -22 -32 -22 -35 0 -3 -5
-23 -11 -45 -6 -22 -11 -59 -11 -83 0 -25 -14 -77 -35 -129 -19 -48 -35 -93
-35 -99 0 -7 -6 -17 -14 -21 -8 -4 -16 -28 -19 -53 -3 -25 -12 -72 -21 -105
-9 -33 -17 -76 -17 -95 -1 -19 -8 -55 -16 -80 -11 -33 -13 -85 -11 -205 3
-136 0 -165 -13 -186 -10 -15 -15 -36 -12 -52 3 -15 1 -27 -5 -27 -5 0 -15
-30 -22 -67 -9 -55 -18 -74 -46 -103 -51 -52 -171 -110 -228 -110 -28 0 -36
-5 -46 -30 -10 -24 -10 -37 -1 -56 8 -17 8 -31 1 -44 -15 -28 -12 -40 12 -50
15 -6 17 -9 7 -9 -21 -1 -34 -36 -34 -91 l0 -45 1598 -3 1597 -2 0 59 c0 96 9
91 -166 91 -130 0 -156 2 -161 15 -8 22 20 40 88 54 32 6 62 17 66 24 4 7 9
34 10 62 1 42 -2 53 -26 75 -43 39 -71 60 -79 60 -14 0 -70 64 -80 90 -5 14
-13 60 -17 103 -3 42 -10 77 -15 77 -5 0 -14 17 -21 37 -6 21 -19 49 -28 63
-29 43 -42 81 -46 139 -16 182 -74 414 -123 481 -10 14 -25 41 -35 61 -9 19
-25 43 -37 54 -11 10 -20 22 -20 26 0 4 -13 23 -30 41 -24 26 -30 42 -32 83
-3 95 -13 147 -38 195 -10 19 -26 85 -35 145 -10 61 -21 117 -25 125 -4 8 -11
33 -14 55 -7 45 -40 154 -61 200 -8 17 -33 75 -56 130 -23 55 -53 117 -66 137
-26 43 -28 54 -10 61 7 3 4 6 -6 6 -11 1 -17 8 -16 19 3 23 -11 72 -28 99 -20
30 -27 127 -11 141 10 8 12 39 8 120 -4 92 -9 115 -26 139 -12 16 -24 53 -28
85 -4 32 -11 60 -16 63 -13 8 -6 160 8 178 19 22 41 264 49 525 4 139 10 232
16 232 24 0 94 -25 116 -42 13 -10 29 -18 36 -18 6 0 28 -17 47 -37 20 -21 63
-65 95 -99 106 -110 116 -125 125 -189 4 -26 46 -33 55 -9 16 41 -23 146 -74
202 -21 22 -26 59 -17 120 l9 57 46 0 c25 0 58 7 73 15 23 12 27 19 22 43 -6
29 -51 95 -74 111 -10 5 -12 19 -8 45 16 91 15 89 66 106 26 9 51 23 54 32 8
20 -18 61 -47 73 -37 15 -65 44 -72 73 -7 26 7 38 20 17 9 -15 25 -12 25 5 0
8 -42 58 -94 111 -67 68 -103 114 -125 159 -16 35 -47 80 -69 101 -44 44 -132
150 -132 161 0 3 18 41 40 84 22 43 40 85 40 94 0 9 9 33 19 54 11 20 38 96
61 167 22 71 48 143 56 159 22 46 64 208 90 345 8 41 18 88 24 103 5 15 12 61
16 102 10 107 10 109 16 125 4 8 11 37 18 64 6 27 18 58 26 70 20 30 17 57 -7
63 -20 6 -21 10 -15 67 8 70 17 124 42 250 13 69 14 93 6 107 -7 10 -12 29
-12 41 0 25 -77 105 -97 100 -7 -1 -17 7 -23 18 -6 11 -17 20 -24 20 -8 0 -19
7 -26 15 -22 27 -63 18 -103 -22z m-1277 -3449 c3 -32 11 -68 17 -79 6 -11 17
-48 24 -83 6 -34 16 -65 20 -68 5 -3 9 -44 9 -91 0 -71 -4 -90 -22 -116 -12
-18 -25 -34 -30 -37 -4 -3 -10 -33 -14 -65 -4 -33 -15 -84 -26 -114 -10 -30
-18 -62 -18 -71 0 -9 -12 -39 -26 -65 -14 -27 -34 -87 -45 -134 -12 -46 -34
-111 -50 -142 -15 -32 -37 -88 -48 -126 -27 -92 -55 -170 -63 -178 -4 -4 -9 3
-12 16 -5 22 -46 293 -46 302 0 3 8 7 19 10 17 4 19 15 18 92 0 48 4 90 10 93
18 12 33 50 33 83 0 18 6 40 13 48 23 29 49 120 42 148 -6 27 12 160 25 178 4
6 11 26 15 45 18 90 48 206 58 225 6 11 14 38 18 60 7 41 28 100 42 123 17 26
32 4 37 -54z m511 -1441 c24 -31 59 -73 76 -92 18 -20 53 -76 77 -126 93 -188
166 -345 166 -354 0 -6 20 -52 44 -103 112 -236 136 -291 136 -308 0 -10 5
-22 10 -25 17 -10 151 -298 146 -311 -3 -7 2 -15 10 -18 8 -3 14 -14 14 -23 0
-10 6 -27 14 -38 7 -11 21 -45 31 -75 10 -30 28 -75 41 -100 13 -25 24 -52 24
-61 0 -8 14 -55 30 -104 17 -49 30 -97 30 -107 0 -10 4 -18 8 -18 5 0 14 -22
21 -49 7 -28 21 -66 31 -87 11 -20 22 -56 26 -80 3 -25 10 -47 15 -50 5 -3 9
-13 9 -23 0 -9 11 -32 25 -51 27 -37 33 -62 12 -54 -7 2 -24 0 -38 -5 l-24
-10 25 -1 c49 -1 68 -40 20 -40 -20 0 -71 -20 -80 -31 -3 -3 -310 -3 -684 0
l-678 6 -2 53 c0 28 3 52 8 52 4 0 6 17 3 37 -12 91 -48 344 -77 533 -17 113
-31 221 -31 240 -1 19 -7 60 -14 90 -7 30 -12 64 -12 75 0 11 -3 35 -7 53 -7
28 -5 33 16 41 l23 10 -22 0 c-30 1 -39 40 -23 94 11 36 67 159 104 227 21 38
199 403 249 510 25 52 61 129 80 170 20 41 43 91 51 110 15 32 27 54 49 88 14
20 23 14 68 -45z m-637 -1261 c5 -8 12 -56 21 -147 4 -33 13 -91 21 -130 14
-68 19 -100 49 -329 8 -60 19 -123 24 -140 5 -17 13 -67 16 -111 4 -44 11 -88
16 -98 7 -12 4 -23 -11 -39 -21 -22 -25 -40 -13 -52 4 -3 8 -13 9 -21 2 -12
-10 -15 -50 -15 -29 0 -115 -3 -191 -7 l-137 -6 11 21 c6 12 8 22 4 22 -4 0 2
7 13 15 18 15 18 16 -6 13 -22 -3 -25 1 -28 34 -2 22 5 52 17 76 11 22 21 56
23 76 1 20 6 36 10 36 4 0 8 21 8 46 0 25 5 54 11 66 6 11 12 46 14 79 3 32 9
68 15 78 5 11 24 84 40 163 16 79 34 154 39 168 6 14 17 63 27 110 9 47 18 88
21 93 6 9 21 9 27 -1z"/>
<path d="M4200 1650 c0 -5 5 -10 11 -10 5 0 7 5 4 10 -3 6 -8 10 -11 10 -2 0
-4 -4 -4 -10z"/>
</g>
</svg>
