<?xml version="1.0" standalone="no"?>
<!DOCTYPE svg PUBLIC "-//W3C//DTD SVG 20010904//EN"
 "http://www.w3.org/TR/2001/REC-SVG-20010904/DTD/svg10.dtd">
<svg version="1.0" xmlns="http://www.w3.org/2000/svg"
 width="570.000000pt" height="428.000000pt" viewBox="0 0 570.000000 428.000000"
 preserveAspectRatio="xMidYMid meet">

<g transform="translate(0.000000,428.000000) scale(0.100000,-0.100000)"
fill="#000000" stroke="none">
<path d="M1350 3394 c-19 -6 -36 -16 -38 -22 -2 -8 -9 -8 -22 1 -26 16 -38 3
-53 -59 -9 -35 -19 -52 -37 -61 -31 -15 -50 -41 -50 -68 0 -15 -10 -25 -35
-34 -43 -15 -52 -44 -35 -108 17 -59 98 -183 139 -212 66 -47 203 -36 303 24
43 25 64 33 73 25 19 -16 85 -156 85 -181 0 -38 31 -79 113 -152 78 -70 174
-127 213 -127 43 0 133 -41 159 -72 50 -59 58 -85 46 -145 -9 -45 -8 -61 6
-96 27 -67 22 -132 -14 -212 -32 -70 -83 -245 -83 -284 0 -31 -78 -109 -140
-141 -30 -15 -75 -47 -100 -70 -44 -40 -196 -134 -335 -208 -83 -44 -171 -123
-162 -147 8 -19 -60 -64 -157 -102 -86 -34 -126 -70 -126 -112 0 -27 17 -48
108 -140 127 -128 168 -151 266 -151 52 0 75 5 96 20 26 18 28 23 19 50 -10
27 -45 62 -118 118 -33 25 -39 53 -18 88 15 26 64 84 71 84 3 0 11 -18 17 -40
18 -61 28 -64 85 -27 27 18 78 48 114 66 36 19 88 50 115 70 28 20 71 49 97
64 25 15 79 60 120 100 40 40 91 86 113 102 110 81 164 140 203 220 22 44 57
109 78 145 22 36 53 96 69 134 17 38 50 110 75 160 l45 91 65 -4 c36 -2 74 -5
85 -7 11 -3 58 -9 105 -15 47 -5 136 -17 198 -25 63 -7 150 -14 194 -14 72 0
79 -2 73 -17 -10 -29 -37 -172 -46 -253 -9 -81 -28 -159 -45 -181 -6 -8 -19
-43 -29 -78 l-19 -64 27 -23 c27 -23 27 -24 11 -56 -9 -18 -36 -63 -60 -99
-73 -110 -80 -150 -36 -190 29 -27 139 -79 166 -79 32 0 55 -20 62 -54 8 -45
27 -61 94 -79 126 -35 232 -29 245 13 7 23 -29 90 -49 90 -28 0 -94 60 -139
127 l-47 69 1 95 c2 142 6 153 57 160 63 8 67 17 64 122 -3 90 31 396 61 554
12 61 12 78 0 115 -15 45 -74 108 -102 108 -21 0 -93 25 -139 49 -112 55 -322
113 -524 144 -89 13 -87 8 -37 109 31 62 32 62 71 72 24 6 27 4 25 -21 -2 -22
2 -28 18 -28 15 0 28 17 50 62 22 46 35 63 50 63 21 0 65 40 65 58 0 6 6 15
13 19 15 9 41 118 32 133 -3 6 1 17 10 26 10 11 15 29 13 53 -2 28 -8 38 -29
45 -37 13 -78 0 -89 -28 -5 -15 -20 -27 -39 -31 -16 -3 -49 -25 -73 -49 -54
-52 -62 -55 -171 -67 -49 -5 -97 -14 -108 -20 -13 -6 -44 -8 -82 -4 -50 6 -66
12 -80 32 -17 22 -18 26 -3 42 20 22 20 35 0 52 -12 10 -22 10 -44 2 -26 -10
-31 -7 -61 23 -18 19 -30 37 -26 40 13 13 -16 34 -47 34 -24 0 -47 14 -103 63
-39 34 -109 82 -157 107 -47 25 -103 54 -123 64 -53 28 -125 32 -174 11 -21
-10 -42 -15 -45 -12 -4 3 -22 0 -41 -8 -31 -13 -39 -13 -62 0 -14 8 -44 23
-66 34 -24 12 -58 44 -85 80 -46 62 -70 73 -97 46 -13 -14 -18 -14 -32 -2 -13
11 -23 11 -51 1z m1530 -838 c0 -9 -54 -131 -61 -140 -5 -6 -17 -2 -29 9 -16
15 -20 29 -18 64 3 42 5 45 43 57 44 13 65 16 65 10z m-1605 -1694 c8 -20 16
-23 48 -20 49 5 48 -10 -2 -18 -31 -5 -41 -11 -43 -28 -8 -54 -99 -10 -97 47
l1 32 9 -31 c9 -31 35 -61 44 -52 2 2 0 21 -6 41 -5 21 -7 42 -4 48 11 17 39
6 50 -19z"/>
<path d="M1240 858 c0 -16 4 -28 9 -28 18 0 20 17 6 36 -14 18 -14 18 -15 -8z"/>
<path d="M1256 805 c-3 -8 -1 -15 4 -15 6 0 10 7 10 15 0 8 -2 15 -4 15 -2 0
-6 -7 -10 -15z"/>
</g>
</svg>
